<svg xmlns="http://www.w3.org/2000/svg" width="1600" height="1040" viewBox="0 0 1600 1040">
<rect width="100%" height="100%" fill="#ffffff"/>
<style>.edge{stroke:#89a7c5;stroke-width:4}.node{fill:#eef4fa;stroke:#345a8a;stroke-width:3}.core{fill:#345a8a}.t{font-family:"Noto Sans CJK SC","PingFang SC",sans-serif;text-anchor:middle;fill:#18324b;font-size:23px}.ct{font-family:"Noto Sans CJK SC","PingFang SC",sans-serif;text-anchor:middle;fill:white;font-weight:700;font-size:27px}</style>
<line class="edge" x1="800" y1="520" x2="800.0" y2="170.0"/>
<line class="edge" x1="800" y1="520" x2="1196.0" y2="272.5"/>
<line class="edge" x1="800" y1="520" x2="1360.0" y2="520.0"/>
<line class="edge" x1="800" y1="520" x2="1196.0" y2="767.5"/>
<line class="edge" x1="800" y1="520" x2="800.0" y2="870.0"/>
<line class="edge" x1="800" y1="520" x2="404.0" y2="767.5"/>
<line class="edge" x1="800" y1="520" x2="240.0" y2="520.0"/>
<line class="edge" x1="800" y1="520" x2="404.0" y2="272.5"/>
<rect class="core" x="520" y="425" width="560" height="190" rx="28"/>
<text class="ct" x="800" y="500">神经网络、Transformer</text>
<text class="ct" x="800" y="540">、GNN与基础模型</text>
<rect class="node" x="595.0" y="102.0" width="410" height="136" rx="20"/>
<text class="t" x="800.0" y="153.0">7.1 感知机、非线性表示与多层网</text>
<text class="t" x="800.0" y="187.0">络</text>
<rect class="node" x="991.0" y="204.5" width="410" height="136" rx="20"/>
<text class="t" x="1196.0" y="255.5">7.2 损失函数、反向传播与优化稳</text>
<text class="t" x="1196.0" y="289.5">定性</text>
<rect class="node" x="1155.0" y="452.0" width="410" height="136" rx="20"/>
<text class="t" x="1360.0" y="503.0">7.3 CNN：局部结构、峰形与空</text>
<text class="t" x="1360.0" y="537.0">间图像</text>
<rect class="node" x="991.0" y="699.5" width="410" height="136" rx="20"/>
<text class="t" x="1196.0" y="750.5">7.4 RNN：序列、时间与分子字</text>
<text class="t" x="1196.0" y="784.5">符串</text>
<rect class="node" x="595.0" y="802.0" width="410" height="136" rx="20"/>
<text class="t" x="800.0" y="853.0">7.5 GNN：节点、边、消息传递</text>
<text class="t" x="800.0" y="887.0">与几何</text>
<rect class="node" x="199.0" y="699.5" width="410" height="136" rx="20"/>
<text class="t" x="404.0" y="750.5">7.6 Transformer：注</text>
<text class="t" x="404.0" y="784.5">意力、位置与长程关系</text>
<rect class="node" x="35.0" y="452.0" width="410" height="136" rx="20"/>
<text class="t" x="240.0" y="503.0">7.7 自监督、迁移学习与小样本适</text>
<text class="t" x="240.0" y="537.0">配</text>
<rect class="node" x="199.0" y="204.5" width="410" height="136" rx="20"/>
<text class="t" x="404.0" y="255.5">7.8 化学基础模型的能力、成本和</text>
<text class="t" x="404.0" y="289.5">边界</text>
</svg>