<svg xmlns="http://www.w3.org/2000/svg" width="1600" height="1040" viewBox="0 0 1600 1040">
<rect width="100%" height="100%" fill="#ffffff"/>
<style>.edge{stroke:#89a7c5;stroke-width:4}.node{fill:#eef4fa;stroke:#345a8a;stroke-width:3}.core{fill:#345a8a}.t{font-family:"Noto Sans CJK SC","PingFang SC",sans-serif;text-anchor:middle;fill:#18324b;font-size:23px}.ct{font-family:"Noto Sans CJK SC","PingFang SC",sans-serif;text-anchor:middle;fill:white;font-weight:700;font-size:27px}</style>
<line class="edge" x1="800" y1="520" x2="800.0" y2="170.0"/>
<line class="edge" x1="800" y1="520" x2="1196.0" y2="272.5"/>
<line class="edge" x1="800" y1="520" x2="1360.0" y2="520.0"/>
<line class="edge" x1="800" y1="520" x2="1196.0" y2="767.5"/>
<line class="edge" x1="800" y1="520" x2="800.0" y2="870.0"/>
<line class="edge" x1="800" y1="520" x2="404.0" y2="767.5"/>
<line class="edge" x1="800" y1="520" x2="240.0" y2="520.0"/>
<line class="edge" x1="800" y1="520" x2="404.0" y2="272.5"/>
<rect class="core" x="520" y="425" width="560" height="190" rx="28"/>
<text class="ct" x="800" y="520">质谱、色谱、核磁与结构解析</text>
<rect class="node" x="595.0" y="102.0" width="410" height="136" rx="20"/>
<text class="t" x="800.0" y="153.0">10.1 色谱分离、保留、峰形、柱</text>
<text class="t" x="800.0" y="187.0">效与分辨率</text>
<rect class="node" x="991.0" y="204.5" width="410" height="136" rx="20"/>
<text class="t" x="1196.0" y="255.5">10.2 GC、LC及其与质谱/核</text>
<text class="t" x="1196.0" y="289.5">磁的联用</text>
<rect class="node" x="1155.0" y="452.0" width="410" height="136" rx="20"/>
<text class="t" x="1360.0" y="503.0">10.3 离子化、质量分析、碎片与</text>
<text class="t" x="1360.0" y="537.0">同位素信息</text>
<rect class="node" x="991.0" y="699.5" width="410" height="136" rx="20"/>
<text class="t" x="1196.0" y="750.5">10.4 峰检测、对齐、反卷积与保</text>
<text class="t" x="1196.0" y="784.5">留指数</text>
<rect class="node" x="595.0" y="802.0" width="410" height="136" rx="20"/>
<text class="t" x="800.0" y="853.0">10.5 谱库相似性、近邻检索与开</text>
<text class="t" x="800.0" y="887.0">放集Top-k</text>
<rect class="node" x="199.0" y="699.5" width="410" height="136" rx="20"/>
<text class="t" x="404.0" y="767.5">10.6 结构到谱图的正向预测</text>
<rect class="node" x="35.0" y="452.0" width="410" height="136" rx="20"/>
<text class="t" x="240.0" y="503.0">10.7 谱图到亚结构、分子式与候</text>
<text class="t" x="240.0" y="537.0">选生成</text>
<rect class="node" x="199.0" y="204.5" width="410" height="136" rx="20"/>
<text class="t" x="404.0" y="255.5">10.8 MS/NMR/IR/保留</text>
<text class="t" x="404.0" y="289.5">信息的证据矩阵</text>
</svg>